<svg xmlns="http://www.w3.org/2000/svg" viewBox="0 0 512 512"><path d="M213.25 275.175l-13.029-7.522c-3.213-1.83-7.207-1.828-10.46.021l-21.838 12.604c-10.63 6.153-14.385 19.697-8.355 30.217 2.977 5.147 7.838 8.775 13.686 10.215a22.73 22.73 0 0 0 5.429.661c3.917 0 7.78-1.025 11.236-3.025l21.795-12.58a10.51 10.51 0 0 0 5.286-9.115v-14.98a7.5 7.5 0 0 0-3.75-6.496zM202 294.054l-19.587 11.305a7.584 7.584 0 0 1-5.574.786c-1.849-.455-3.372-1.577-4.272-3.134-1.887-3.292-.572-7.757 2.862-9.745l19.58-11.302L202 286v8.054zM255.938 148.32c-.146-.002-.289-.004-.434-.004-11.906 0-21.739 9.723-22.013 21.873v.005l-.551 25.214c-.068 3.708 1.852 7.218 5.049 9.184l12.82 7.78a7.501 7.501 0 0 0 7.495.165l13.162-7.213c3.248-1.794 5.328-5.215 5.432-8.971l.55-25.185c.277-12.314-9.36-22.563-21.51-22.848zm6.019 45.111l-7.067 3.872-6.897-4.185.495-22.595c.092-3.98 3.387-7.263 7.126-7.205 3.796.089 6.927 3.529 6.837 7.518l-.494 22.595zM278.319 238.004l-17.938-10.352c-3.213-1.829-7.206-1.828-10.462.022l-16.395 9.469a10.54 10.54 0 0 0-5.234 9.087v18.899c0 3.727 2.004 7.208 5.25 9.096l16.416 9.479a10.5 10.5 0 0 0 5.205 1.373c1.813 0 3.629-.464 5.259-1.393l16.412-9.472c3.231-1.88 5.239-5.36 5.239-9.084V244.5a7.504 7.504 0 0 0-3.752-6.496zm-23.148 31.391l-11.881-6.861v-13.709l11.88-6.861 11.899 6.867v13.697h.001l-11.899 6.867zM342.679 280.273l-21.839-12.604c-3.213-1.849-7.218-1.856-10.49.006l-12.99 7.5a7.5 7.5 0 0 0-3.75 6.495v14.98c0 3.76 2.029 7.253 5.26 9.095l21.813 12.596a22.4 22.4 0 0 0 11.246 3.03c1.809 0 3.63-.219 5.428-.661 5.848-1.439 10.708-5.067 13.686-10.215l.01-.018c6.029-10.491 2.276-24.039-8.374-30.204zm-4.628 22.723c-.916 1.576-2.435 2.694-4.28 3.148a7.597 7.597 0 0 1-5.581-.79l-19.581-11.307V286h.001l6.99-4.036 19.573 11.297c3.443 1.993 4.76 6.45 2.878 9.735z"/><path d="M437.012 74.991C388.656 26.633 324.377 0 256.016 0 114.848 0 0 114.842 0 256.001c0 68.366 26.638 132.65 75.006 181.012C123.37 485.369 187.654 512 256.016 512c68.361 0 132.641-26.631 180.996-74.988C485.369 388.653 512 324.369 512 256.001c0-68.366-26.631-132.65-74.988-181.01zm-189.077 25.381c-1.488-4.308-3.697-8.271-6.447-11.586l13.628-41.277c1.415 4.223 2.811 8.333 4.188 12.389 3.113 9.164 6.323 18.616 9.592 28.91-9.969 11.969-11.498 30.516-3.142 42.662a26.544 26.544 0 0 0 6.818 6.926c8.23 5.94 13.143 15.609 13.143 25.874v20.351c0 3.745 2.016 7.233 5.262 9.103a10.512 10.512 0 0 0 10.489-.008l39.335-22.717a7.501 7.501 0 0 0-7.502-12.99l-32.584 18.818V164.27c0-15.093-7.26-29.328-19.419-38.077a11.602 11.602 0 0 1-3.11-3.118l-.059-.087c-4.83-6.992-3.277-19.01 3.315-25.707a10.473 10.473 0 0 0 2.539-10.52c-3.572-11.368-7.058-21.632-10.429-31.558 103.282 8.93 184.005 96.879 184.005 200.799 0 29.421-6.21 57.807-18.458 84.372-.054.123-.101.249-.153.374l-22.991-25.477a10.464 10.464 0 0 0-10.339-3.144l-.289.067c-.033.008-.066.017-.1.024-2.796.691-5.922.731-9.062.108-7.357-1.436-15.141-6.844-15.783-14.403a2.517 2.517 0 0 0-.012-.122c-1.515-14.909-10.219-28.311-23.281-35.848l-10.858-6.271 81.326-46.968a10.4 10.4 0 0 0 4.906-6.374 10.414 10.414 0 0 0-1.05-7.974l-9.537-16.513a10.448 10.448 0 0 0-6.35-4.874 10.38 10.38 0 0 0-7.969 1.037l-101.535 58.442-5.304-3.066v-7.08l100.976-58.509c5.005-2.906 6.714-9.34 3.822-14.321l-9.112-15.812c-2.894-4.985-9.317-6.709-14.337-3.828l-19.71 11.384a7.5 7.5 0 1 0 7.502 12.989l15.811-9.132 4.609 7.998-99.367 57.577a10.554 10.554 0 0 0-5.193 9.068v12.26c0 3.729 2.005 7.21 5.246 9.093l9.778 5.653a10.553 10.553 0 0 0 10.507.023l99.893-57.497 5.029 8.709-84.182 48.617a10.52 10.52 0 0 0-5.261 9.097c0 3.744 2.016 7.229 5.249 9.09l17.612 10.171c8.885 5.127 14.808 14.215 15.852 24.319 1.367 15.623 15.386 25.353 27.829 27.78 4.464.886 9.015.954 13.293.21l29.692 32.902a4617.28 4617.28 0 0 0-13.402-2.783c-9.617-1.987-19.522-4.034-30.034-6.348-1.449-3.969-3.688-7.778-6.621-11.224-7.514-8.752-18.548-13.677-28.833-12.867a27.45 27.45 0 0 0-9.326 2.467c-9.24 4.15-20.062 3.561-28.96-1.578l-17.598-10.162a10.521 10.521 0 0 0-10.507-.018 10.523 10.523 0 0 0-5.256 9.095v64.51a7.5 7.5 0 0 0 7.5 7.5 7.5 7.5 0 0 0 7.5-7.5v-56.706l10.86 6.271c13.082 7.555 29.033 8.392 42.673 2.241l.106-.049a12.437 12.437 0 0 1 4.234-1.121c5.469-.428 11.842 2.583 16.205 7.664 2.438 2.863 4.052 6.063 4.668 9.252a7.499 7.499 0 0 0 5.726 5.896c12.267 2.745 23.634 5.094 34.627 7.365l.864.179c-.089.115-.181.227-.265.346-37.787 53.205-99.246 84.97-164.402 84.97-65.308 0-126.846-31.871-164.614-85.257-.018-.026-.04-.048-.059-.073l31.929-7.095a10.506 10.506 0 0 0 7.846-7.564l.035-.138.042-.168c.83-2.736 2.36-5.429 4.438-7.805 4.924-5.646 13.501-9.675 20.356-6.452l.108.05c13.64 6.15 29.592 5.312 42.67-2.239l10.893-6.283v93.946c0 5.79 4.71 10.5 10.5 10.5h18.34c5.79 0 10.5-4.71 10.5-10.49l.146-116.761 6.024-3.477 6.06 3.495.02 116.732c0 5.79 4.71 10.5 10.5 10.5h18.47c5.79 0 10.5-4.71 10.5-10.5V424a7.5 7.5 0 0 0-15-.02h-9.471l-.019-114.83c0-3.765-2.025-7.258-5.253-9.098l-10.54-6.078a10.504 10.504 0 0 0-10.516-.011l-10.486 6.051a10.497 10.497 0 0 0-5.286 9.096l-.144 114.87h-9.346v-97.24a10.53 10.53 0 0 0-5.24-9.09 10.532 10.532 0 0 0-10.497-.007l-17.653 10.182c-8.895 5.138-19.715 5.727-28.956 1.58-14.202-6.636-29.642.625-37.979 10.188-3.011 3.443-5.36 7.37-6.872 11.466l-41.769 9.281c3.018-3.565 5.924-7.063 8.79-10.515 6.051-7.284 12.293-14.799 19.317-22.608 15.353 2.646 32.196-5.302 38.529-18.609 1.45-3.042 2.314-6.196 2.57-9.379 1.062-10.094 6.984-19.166 15.86-24.283l17.599-10.164a10.52 10.52 0 0 0 5.261-9.097c0-3.744-2.016-7.229-5.25-9.09l-84.194-48.62 5.021-8.662 98.877 55.517c2.663 1.486 5.839 1.743 8.753.69l10.995-4.043c4.089-1.526 6.837-5.483 6.837-9.847v-11.65c0-3.734-2.002-7.216-5.22-9.084L120.053 153.1l4.629-8.017 84.211 48.623a10.515 10.515 0 0 0 10.501.016 10.531 10.531 0 0 0 5.262-9.103V164.27c0-10.281 4.9-19.953 13.111-25.884 12.834-8.977 14.276-25.976 10.168-38.014zM15 256.001c0-127.535 99.58-232.25 225.078-240.479l-8.282 25.279c-32.588 3.639-64.3 14.8-91.896 32.365a7.5 7.5 0 0 0 8.054 12.654c26.817-17.07 56.5-27.297 88.225-30.397.192-.019.374-.068.563-.097L226.415 86.61a10.478 10.478 0 0 0 2.389 10.495c.119.129.239.253.363.378 1.96 2.066 3.548 4.756 4.585 7.759 2.421 7.096 1.617 16.542-4.605 20.871l-.099.069c-12.14 8.739-19.388 22.978-19.388 38.087v12.558l-81.355-46.974c-5.003-2.904-11.441-1.19-14.359 3.835l-9.132 15.812c-2.854 4.978-1.15 11.392 3.826 14.313l101.021 58.747v5.936l-6.064 2.23-100.935-56.673c-4.961-2.774-11.334-1.034-14.219 3.905l-9.509 16.405a10.45 10.45 0 0 0-1.049 7.965 10.426 10.426 0 0 0 4.897 6.386l81.337 46.971-10.853 6.268c-13.059 7.528-21.768 20.924-23.294 35.832a6.93 6.93 0 0 0-.018.198c-.104 1.366-.494 2.77-1.164 4.174-3.649 7.666-14.841 12.314-23.927 9.958a10.47 10.47 0 0 0-10.417 3.086c-7.975 8.759-14.85 17.035-21.499 25.04l-.121.146a10.47 10.47 0 0 0-.441-1.199c-11.904-26.235-17.939-54.223-17.939-83.187 0-56.751 24.166-111.211 66.301-149.418a7.5 7.5 0 0 0-10.076-11.112C65.406 136.515 39.446 195.026 39.446 256c0 30.13 6.082 59.283 18.083 86.698L39.82 362.466C23.933 330.345 15 294.194 15 256.001zM256.016 497c-83.863 0-157.856-43.045-201.043-108.207l25.908-5.426c40.708 55.905 105.952 89.191 175.135 89.191 69.024 0 134.182-33.173 174.907-88.891l25.906 5.431C413.62 454.091 339.739 497 256.016 497zm197.931-153.046c12.353-27.767 18.614-57.342 18.614-87.953 0-54.545-20.388-106.696-57.409-146.847-35.889-38.923-84.252-63.147-136.656-68.562l-8.258-25.178C396.519 22.805 497 127.89 497 256.001c0 38.664-9.153 75.234-25.404 107.651l-17.649-19.698z"/></svg>