<svg height="640" viewBox="0 -120 480 480" width="640" xmlns="http://www.w3.org/2000/svg"><path d="M472 0H8a8 8 0 0 0-8 8v192a8 8 0 0 0 8 8h32v24a8 8 0 0 0 8 8h40a8 8 0 0 0 8-8v-24h288v24a8 8 0 0 0 8 8h40a8 8 0 0 0 8-8v-24h32a8 8 0 0 0 8-8V8a8 8 0 0 0-8-8zM80 224H56v-16h24zm344 0h-24v-16h24zm40-32H16V16h448zm0 0"/><path d="M256 176c35.348 0 64-28.652 64-64s-28.652-64-64-64-64 28.652-64 64c.04 35.328 28.672 63.96 64 64zm-8-111.281V80h16V64.719c24.605 4.16 41.918 26.476 39.832 51.344-2.086 24.867-22.879 43.984-47.832 43.984s-45.746-19.117-47.832-43.984C206.082 91.195 223.395 68.879 248 64.719zm0 0M160 32h16v16h-16zm0 0M160 64h16v16h-16zm0 0M128 32h16v16h-16zm0 0M128 64h16v16h-16zm0 0M96 32h16v16H96zm0 0M96 64h16v16H96zm0 0M64 32h16v16H64zm0 0M64 64h16v16H64zm0 0M32 32h16v16H32zm0 0M32 64h16v16H32zm0 0M368 176c16.094.02 29.688-11.938 31.719-27.906 2.035-15.965-8.133-30.946-23.719-34.957V96h-16v17.137c-15.586 4.011-25.754 18.992-23.719 34.957C338.312 164.063 351.906 176.02 368 176zm0-48c8.836 0 16 7.164 16 16s-7.164 16-16 16-16-7.164-16-16 7.164-16 16-16zm0 0M144 176c16.094.02 29.688-11.938 31.719-27.906 2.035-15.965-8.133-30.946-23.719-34.957V96h-16v17.137c-15.586 4.011-25.754 18.992-23.719 34.957C114.312 164.063 127.906 176.02 144 176zm0-48c8.836 0 16 7.164 16 16s-7.164 16-16 16-16-7.164-16-16 7.164-16 16-16zm0 0M64 176c16.094.02 29.688-11.938 31.719-27.906 2.035-15.965-8.133-30.946-23.719-34.957V96H56v17.137c-15.586 4.011-25.754 18.992-23.719 34.957C34.313 164.063 47.906 176.02 64 176zm0-48c8.836 0 16 7.164 16 16s-7.164 16-16 16-16-7.164-16-16 7.164-16 16-16zm0 0M408 112h32a8 8 0 0 0 8-8V40a8 8 0 0 0-8-8h-32a8 8 0 0 0-8 8v64a8 8 0 0 0 8 8zm8-64h16v16h-16zm0 32h16v16h-16zm0 0M432 136a8 8 0 1 1-16 0 8 8 0 0 1 16 0zm0 0M432 168a8 8 0 1 1-16 0 8 8 0 0 1 16 0zm0 0"/></svg>